<mxGraphModel dx="960" dy="593" grid="1" gridSize="10" guides="1" tooltips="1" connect="1" arrows="1" fold="1" page="1" pageScale="1" pageWidth="850" pageHeight="1100" math="0" shadow="0">
  <root>
    <mxCell id="0" />
    <mxCell id="1" parent="0" />
    <mxCell id="baDXVqSwFS8Pu7y57l61-1" value="Trips&lt;br&gt;(protobuf)" style="rounded=0;whiteSpace=wrap;html=1;" vertex="1" parent="1">
      <mxGeometry x="60" y="260" width="60" height="50" as="geometry" />
    </mxCell>
    <mxCell id="baDXVqSwFS8Pu7y57l61-29" style="edgeStyle=orthogonalEdgeStyle;rounded=0;orthogonalLoop=1;jettySize=auto;html=1;exitX=1;exitY=0.5;exitDx=0;exitDy=0;" edge="1" parent="1" source="baDXVqSwFS8Pu7y57l61-2" target="baDXVqSwFS8Pu7y57l61-28">
      <mxGeometry relative="1" as="geometry" />
    </mxCell>
    <mxCell id="baDXVqSwFS8Pu7y57l61-2" value="TripEntitiesExploded" style="rounded=0;whiteSpace=wrap;html=1;" vertex="1" parent="1">
      <mxGeometry x="160" y="260" width="130" height="50" as="geometry" />
    </mxCell>
    <mxCell id="baDXVqSwFS8Pu7y57l61-32" style="edgeStyle=orthogonalEdgeStyle;rounded=0;orthogonalLoop=1;jettySize=auto;html=1;exitX=1;exitY=0.5;exitDx=0;exitDy=0;entryX=0;entryY=0.5;entryDx=0;entryDy=0;" edge="1" parent="1" source="baDXVqSwFS8Pu7y57l61-3" target="baDXVqSwFS8Pu7y57l61-31">
      <mxGeometry relative="1" as="geometry" />
    </mxCell>
    <mxCell id="baDXVqSwFS8Pu7y57l61-3" value="TripsKeyed" style="rounded=0;whiteSpace=wrap;html=1;" vertex="1" parent="1">
      <mxGeometry x="530" y="260" width="80" height="50" as="geometry" />
    </mxCell>
    <mxCell id="baDXVqSwFS8Pu7y57l61-4" value="" style="endArrow=classic;html=1;rounded=0;exitX=1;exitY=0.5;exitDx=0;exitDy=0;entryX=0;entryY=0.5;entryDx=0;entryDy=0;" edge="1" parent="1" source="baDXVqSwFS8Pu7y57l61-1" target="baDXVqSwFS8Pu7y57l61-2">
      <mxGeometry width="50" height="50" relative="1" as="geometry">
        <mxPoint x="140" y="360" as="sourcePoint" />
        <mxPoint x="190" y="310" as="targetPoint" />
      </mxGeometry>
    </mxCell>
    <mxCell id="baDXVqSwFS8Pu7y57l61-8" style="edgeStyle=orthogonalEdgeStyle;rounded=0;orthogonalLoop=1;jettySize=auto;html=1;exitX=1;exitY=0.5;exitDx=0;exitDy=0;entryX=0;entryY=0.5;entryDx=0;entryDy=0;" edge="1" parent="1" source="baDXVqSwFS8Pu7y57l61-6" target="baDXVqSwFS8Pu7y57l61-7">
      <mxGeometry relative="1" as="geometry" />
    </mxCell>
    <mxCell id="baDXVqSwFS8Pu7y57l61-6" value="Vehicles&lt;br&gt;(protobuf)" style="rounded=0;whiteSpace=wrap;html=1;" vertex="1" parent="1">
      <mxGeometry x="60" y="340" width="60" height="50" as="geometry" />
    </mxCell>
    <mxCell id="baDXVqSwFS8Pu7y57l61-11" style="edgeStyle=orthogonalEdgeStyle;rounded=0;orthogonalLoop=1;jettySize=auto;html=1;exitX=1;exitY=0.5;exitDx=0;exitDy=0;entryX=0;entryY=0.5;entryDx=0;entryDy=0;" edge="1" parent="1" source="baDXVqSwFS8Pu7y57l61-7" target="baDXVqSwFS8Pu7y57l61-10">
      <mxGeometry relative="1" as="geometry" />
    </mxCell>
    <mxCell id="baDXVqSwFS8Pu7y57l61-7" value="VehicleEntitiesExploded" style="rounded=0;whiteSpace=wrap;html=1;" vertex="1" parent="1">
      <mxGeometry x="160" y="340" width="150" height="50" as="geometry" />
    </mxCell>
    <mxCell id="baDXVqSwFS8Pu7y57l61-12" style="edgeStyle=orthogonalEdgeStyle;rounded=0;orthogonalLoop=1;jettySize=auto;html=1;exitX=1;exitY=0.5;exitDx=0;exitDy=0;entryX=0.25;entryY=1;entryDx=0;entryDy=0;" edge="1" parent="1" source="baDXVqSwFS8Pu7y57l61-9" target="baDXVqSwFS8Pu7y57l61-10">
      <mxGeometry relative="1" as="geometry" />
    </mxCell>
    <mxCell id="baDXVqSwFS8Pu7y57l61-9" value="StopsTable&lt;br&gt;(json)" style="rounded=0;whiteSpace=wrap;html=1;" vertex="1" parent="1">
      <mxGeometry x="60" y="410" width="70" height="50" as="geometry" />
    </mxCell>
    <mxCell id="baDXVqSwFS8Pu7y57l61-33" style="edgeStyle=orthogonalEdgeStyle;rounded=0;orthogonalLoop=1;jettySize=auto;html=1;exitX=1;exitY=0.5;exitDx=0;exitDy=0;entryX=0.25;entryY=1;entryDx=0;entryDy=0;" edge="1" parent="1" source="baDXVqSwFS8Pu7y57l61-10" target="baDXVqSwFS8Pu7y57l61-31">
      <mxGeometry relative="1" as="geometry" />
    </mxCell>
    <mxCell id="baDXVqSwFS8Pu7y57l61-10" value="VehicleStopConnectorExp" style="rounded=0;whiteSpace=wrap;html=1;" vertex="1" parent="1">
      <mxGeometry x="370" y="340" width="150" height="50" as="geometry" />
    </mxCell>
    <mxCell id="baDXVqSwFS8Pu7y57l61-15" value="CalendarTable&lt;br&gt;(json)" style="rounded=0;whiteSpace=wrap;html=1;" vertex="1" parent="1">
      <mxGeometry x="400" y="190" width="100" height="50" as="geometry" />
    </mxCell>
    <mxCell id="baDXVqSwFS8Pu7y57l61-18" value="RoutePathsTable&lt;br&gt;(json)" style="rounded=0;whiteSpace=wrap;html=1;" vertex="1" parent="1">
      <mxGeometry x="545" y="130" width="100" height="50" as="geometry" />
    </mxCell>
    <mxCell id="baDXVqSwFS8Pu7y57l61-22" style="edgeStyle=orthogonalEdgeStyle;rounded=0;orthogonalLoop=1;jettySize=auto;html=1;exitX=1;exitY=0.5;exitDx=0;exitDy=0;" edge="1" parent="1" source="baDXVqSwFS8Pu7y57l61-20" target="baDXVqSwFS8Pu7y57l61-21">
      <mxGeometry relative="1" as="geometry" />
    </mxCell>
    <mxCell id="baDXVqSwFS8Pu7y57l61-20" value="Alerts&lt;br&gt;(protobuf)" style="rounded=0;whiteSpace=wrap;html=1;" vertex="1" parent="1">
      <mxGeometry x="60" y="480" width="100" height="50" as="geometry" />
    </mxCell>
    <mxCell id="baDXVqSwFS8Pu7y57l61-21" value="AlertEntitiesExploded" style="rounded=0;whiteSpace=wrap;html=1;" vertex="1" parent="1">
      <mxGeometry x="210" y="480" width="140" height="50" as="geometry" />
    </mxCell>
    <mxCell id="baDXVqSwFS8Pu7y57l61-25" style="edgeStyle=orthogonalEdgeStyle;rounded=0;orthogonalLoop=1;jettySize=auto;html=1;exitX=1;exitY=0.5;exitDx=0;exitDy=0;entryX=0;entryY=0.5;entryDx=0;entryDy=0;" edge="1" parent="1" source="baDXVqSwFS8Pu7y57l61-23" target="baDXVqSwFS8Pu7y57l61-24">
      <mxGeometry relative="1" as="geometry" />
    </mxCell>
    <mxCell id="baDXVqSwFS8Pu7y57l61-23" value="VehiclesAlt (json schema)" style="rounded=0;whiteSpace=wrap;html=1;" vertex="1" parent="1">
      <mxGeometry x="60" y="200" width="70" height="50" as="geometry" />
    </mxCell>
    <mxCell id="baDXVqSwFS8Pu7y57l61-24" value="VehiclesAltExploded" style="rounded=0;whiteSpace=wrap;html=1;" vertex="1" parent="1">
      <mxGeometry x="210" y="200" width="130" height="50" as="geometry" />
    </mxCell>
    <mxCell id="baDXVqSwFS8Pu7y57l61-26" value="TripsTable&lt;br&gt;(json)" style="rounded=0;whiteSpace=wrap;html=1;" vertex="1" parent="1">
      <mxGeometry x="400" y="140" width="80" height="30" as="geometry" />
    </mxCell>
    <mxCell id="baDXVqSwFS8Pu7y57l61-27" value="CalendarDatesTable&lt;br&gt;(json)" style="rounded=0;whiteSpace=wrap;html=1;" vertex="1" parent="1">
      <mxGeometry x="535" y="200" width="120" height="30" as="geometry" />
    </mxCell>
    <mxCell id="baDXVqSwFS8Pu7y57l61-30" style="edgeStyle=orthogonalEdgeStyle;rounded=0;orthogonalLoop=1;jettySize=auto;html=1;exitX=1;exitY=0.5;exitDx=0;exitDy=0;entryX=0;entryY=0.5;entryDx=0;entryDy=0;" edge="1" parent="1" source="baDXVqSwFS8Pu7y57l61-28" target="baDXVqSwFS8Pu7y57l61-3">
      <mxGeometry relative="1" as="geometry" />
    </mxCell>
    <mxCell id="baDXVqSwFS8Pu7y57l61-28" value="TripEntitiesExplodedStopsExploded" style="rounded=0;whiteSpace=wrap;html=1;" vertex="1" parent="1">
      <mxGeometry x="310" y="260" width="200" height="50" as="geometry" />
    </mxCell>
    <mxCell id="baDXVqSwFS8Pu7y57l61-35" style="edgeStyle=orthogonalEdgeStyle;rounded=0;orthogonalLoop=1;jettySize=auto;html=1;exitX=0.5;exitY=1;exitDx=0;exitDy=0;entryX=0.5;entryY=0;entryDx=0;entryDy=0;" edge="1" parent="1" source="baDXVqSwFS8Pu7y57l61-31" target="baDXVqSwFS8Pu7y57l61-34">
      <mxGeometry relative="1" as="geometry" />
    </mxCell>
    <mxCell id="baDXVqSwFS8Pu7y57l61-31" value="StopEventsAnnotated" style="rounded=0;whiteSpace=wrap;html=1;" vertex="1" parent="1">
      <mxGeometry x="640" y="260" width="130" height="50" as="geometry" />
    </mxCell>
    <mxCell id="baDXVqSwFS8Pu7y57l61-34" value="StopsLatest" style="rounded=0;whiteSpace=wrap;html=1;" vertex="1" parent="1">
      <mxGeometry x="640" y="410" width="130" height="50" as="geometry" />
    </mxCell>
    <mxCell id="baDXVqSwFS8Pu7y57l61-38" style="edgeStyle=orthogonalEdgeStyle;rounded=0;orthogonalLoop=1;jettySize=auto;html=1;exitX=1;exitY=0.5;exitDx=0;exitDy=0;entryX=0;entryY=0.5;entryDx=0;entryDy=0;" edge="1" parent="1" source="baDXVqSwFS8Pu7y57l61-36" target="baDXVqSwFS8Pu7y57l61-37">
      <mxGeometry relative="1" as="geometry" />
    </mxCell>
    <mxCell id="baDXVqSwFS8Pu7y57l61-36" value="AlertsAlt (json schema)" style="rounded=0;whiteSpace=wrap;html=1;" vertex="1" parent="1">
      <mxGeometry x="60" y="130" width="70" height="50" as="geometry" />
    </mxCell>
    <mxCell id="baDXVqSwFS8Pu7y57l61-37" value="AlertsAltExploded" style="rounded=0;whiteSpace=wrap;html=1;" vertex="1" parent="1">
      <mxGeometry x="190" y="130" width="120" height="50" as="geometry" />
    </mxCell>
  </root>
</mxGraphModel>
